<svg width="350" height="397" viewBox="0 0 350 397" fill="none" xmlns="http://www.w3.org/2000/svg">
<path d="M0.125 177.741C7.26991 94.2897 84.2637 6.52017 202.904 0.420792C326.182 -5.91175 420.156 79.5542 430.501 177.732C428.534 177.834 426.588 178.03 424.641 178.04C392.27 178.058 359.898 177.993 327.527 178.133C323.307 178.152 321.452 177.144 320.301 173.143C307.336 128.247 263.58 97.9456 213.096 98.6264C165.416 99.2699 122.587 129.674 110.397 171.903C109.031 176.65 107.146 178.245 101.652 178.198C69.9637 177.928 38.2652 178.077 6.57683 178.058C4.42622 178.03 2.27561 177.844 0.125 177.741Z" fill="#EDF6FF" fill-opacity="0.3"/>
<path d="M0 218.488C2.46657 218.488 4.4643 218.488 6.46202 218.488C38.3236 218.488 70.1853 218.572 102.047 218.395C106.888 218.367 108.968 219.533 110.282 224.084C122.931 267.889 166.586 298.237 216.039 297.939C264.769 297.649 307.894 267.115 320.176 223.944C321.368 219.756 323.101 218.339 327.942 218.376C360.14 218.591 392.338 218.488 424.546 218.488C426.381 218.488 428.206 218.488 430.071 218.488C424.557 297.789 349.53 390.259 226.884 396.107C99.8555 402.169 8.73494 312.264 0 218.488Z" fill="#EDF6FF" fill-opacity="0.3"/>
<path d="M150.37 198.129C150.41 165.673 179.591 138.972 215.071 138.916C250.725 138.86 280.14 165.785 280.048 198.39C279.957 230.817 250.735 257.556 215.296 257.621C179.663 257.677 150.319 230.799 150.37 198.129ZM215.357 168.275C197 168.238 182.456 181.472 182.445 198.222C182.435 214.99 196.949 228.28 215.275 228.262C233.296 228.243 247.922 214.963 248.003 198.539C248.095 181.77 233.571 168.312 215.357 168.275Z" fill="#EDF6FF" fill-opacity="0.3"/>
</svg>
